<svg xmlns="http://www.w3.org/2000/svg" viewBox="0 0 512 512" width="512" height="512" role="img" aria-label="Lock with circuit icon">
  <!-- Body -->
  <rect x="96" y="192" width="320" height="232" rx="28" ry="28" fill="#ffffff" stroke="#0b5fff" stroke-width="18" />
  <!-- Shackle -->
  <path d="M176 192v-48c0-60 96-60 96 0v48" fill="none" stroke="#0b5fff" stroke-width="18" stroke-linecap="round" stroke-linejoin="round"/>
  <!-- Keyhole -->
  <circle cx="256" cy="316" r="22" fill="#0b5fff"/>
  <rect x="246" y="334" width="20" height="36" rx="4" ry="4" fill="#0b5fff"/>
  <!-- Circuit traces (left) -->
  <line x1="56" y1="120" x2="144" y2="160" stroke="#0b5fff" stroke-width="12" stroke-linecap="round"/>
  <circle cx="56" cy="120" r="10" fill="#0b5fff"/>
  <circle cx="144" cy="160" r="8" fill="#0b5fff"/>
  <line x1="144" y1="160" x2="160" y2="220" stroke="#0b5fff" stroke-width="10" stroke-linecap="round"/>
  <!-- Circuit traces (right) -->
  <line x1="456" y1="120" x2="368" y2="160" stroke="#0b5fff" stroke-width="12" stroke-linecap="round"/>
  <circle cx="456" cy="120" r="10" fill="#0b5fff"/>
  <circle cx="368" cy="160" r="8" fill="#0b5fff"/>
  <line x1="368" y1="160" x2="352" y2="220" stroke="#0b5fff" stroke-width="10" stroke-linecap="round"/>
  <!-- Traces into lock -->
  <line x1="160" y1="220" x2="208" y2="260" stroke="#0b5fff" stroke-width="8" stroke-linecap="round"/>
  <line x1="352" y1="220" x2="304" y2="260" stroke="#0b5fff" stroke-width="8" stroke-linecap="round"/>
  <!-- Accent inner border -->
  <rect x="116" y="212" width="280" height="192" rx="18" ry="18" fill="none" stroke="#0b5fff" stroke-opacity="0.12" stroke-width="6"/>
</svg>
